<svg xmlns="http://www.w3.org/2000/svg" viewBox="0 0 130.41 32.36"><defs><style>.cls-1{fill:#fff;}</style></defs><title>logo</title><g id="Capa_2" data-name="Capa 2"><g id="Capa_1-2" data-name="Capa 1"><path class="cls-1" d="M0,14.49V9.23C5.08,8.07,8.69,5.11,10.36,0h3.06c.07,3,0,6,.05,9.08h4.21a14.45,14.45,0,0,1,.13,5.25l-4.23.15a8.79,8.79,0,0,0-.13.95c0,2.08,0,4.15,0,6.23,0,2.3,1.44,3.38,3.7,3a7.61,7.61,0,0,0,5.43-4.17A4.77,4.77,0,0,0,23,18.35c.06-2.33,0-4.65,0-7V9.85c1.54-.8,3-1.55,4.8-1.12a2.45,2.45,0,0,1,2,1.93,15.82,15.82,0,0,1,.45,3.05c.06,2.82,0,5.64,0,8.46a2.82,2.82,0,0,0,.73,2.16,4,4,0,0,0,5.38-3.92c0-3.21,0-6.43,0-9.64V9.24h7.33c.26,1,.36,19.72.11,22.43-3,1.13-6.24,1.11-7.58-2.34-.12.05-.28.06-.36.14a9.55,9.55,0,0,1-8.43,2.66c-2-.23-3.19-1.63-3.82-3.49-.16-.45-.27-.92-.46-1.58a17.38,17.38,0,0,0-1.46,1.21,13.72,13.72,0,0,1-8.24,3.95,8.28,8.28,0,0,1-3.93-.32A6.53,6.53,0,0,1,5,26.48a26.24,26.24,0,0,1-.27-3.54c0-2.76,0-5.52,0-8.45Z"/><path class="cls-1" d="M65.31,1.27A5.75,5.75,0,0,1,70,.15a2.34,2.34,0,0,1,1.93,2,35,35,0,0,1,.35,3.67c.06,1.34,0,2.68,0,4,0,.47.08.94.14,1.62.55-.28.89-.43,1.21-.62a9.29,9.29,0,0,1,3.86-1.41,6.13,6.13,0,0,1,6.63,3.93,14.45,14.45,0,0,1-.85,13.9,10.19,10.19,0,0,1-7.65,4.82,19.44,19.44,0,0,1-10.33-1.34Zm7.06,24.57c4.75.48,6.9-4.5,5.79-7.42a2.34,2.34,0,0,0-2.61-1.74c-1.37,0-2.21.93-3.18,1.69Z"/><path class="cls-1" d="M88.9,10a5.87,5.87,0,0,1,3.76-1.3c1.94,0,2.8.54,3.25,2.75a18.91,18.91,0,0,1,.31,3.53c0,2.47,0,4.95,0,7.42,0,2,1.19,2.86,3.11,2.15a4.21,4.21,0,0,0,2.94-4.16c-.1-3.11,0-6.23,0-9.35,0-.48,0-1,.07-1.54h7.13c.31,1.08.43,19.35.14,22.36a8.85,8.85,0,0,1-4.39.43c-1.72-.32-2.42-1.52-3-2.93-.24.12-.47.16-.58.29a8.27,8.27,0,0,1-5.48,2.59,7.42,7.42,0,0,1-2.78,0,5.31,5.31,0,0,1-4.39-4.91c0-.44,0-.89,0-1.34V10Z"/><path class="cls-1" d="M113.56,24.72a11.08,11.08,0,0,0,4.75,1.71,8.21,8.21,0,0,0,2-.07c1.39-.25,1.62-.64,1.48-2.36-1.06-.51-2.22-1-3.34-1.64a16.52,16.52,0,0,1-3.25-2,6.32,6.32,0,0,1-1.13-7.94,7.46,7.46,0,0,1,4.79-3.36,12.35,12.35,0,0,1,7.15,0c1.34.44,2.67,1,4.15,1.5-.33,1-.57,1.82-.9,2.63a2,2,0,0,1-2.43,1.44c-.68-.08-1.34-.31-2-.42a7,7,0,0,0-1.76-.14c-1.36.14-1.68.64-1.44,2.29l2,1a19.59,19.59,0,0,1,5,3.17,6.37,6.37,0,0,1-2.42,10.52,11.76,11.76,0,0,1-5.62,1.07,17.87,17.87,0,0,1-6-1.44l-2.14-1C112.76,28.16,113.13,26.55,113.56,24.72Z"/><path class="cls-1" d="M47.44,9.86a6.55,6.55,0,0,1,3.48-1.25c1.82-.15,3.31.82,3.77,3.36.11.63.2,1.26.31,1.89a2.75,2.75,0,0,0,.25.51c1.57-3,3.39-5.56,6.93-6.17a45.61,45.61,0,0,1,.16,9c-.63.13-1.31.22-2,.4a6.88,6.88,0,0,0-5.22,4.93A6.22,6.22,0,0,0,55,24.12c0,2.12,0,4.25,0,6.37V32H47.44Z"/></g></g></svg>