<svg xmlns="http://www.w3.org/2000/svg" viewBox="0 0 110.68 38.83"><defs><style>.cls-1,.cls-2{fill:#fff;}.cls-2{font-size:24px;font-family:Lato-Regular, Lato;letter-spacing:0.05em;}.cls-3{letter-spacing:0.03em;}.cls-4{letter-spacing:0.05em;}</style></defs><title>share</title><g id="Capa_2" data-name="Capa 2"><g id="Capa_1-2" data-name="Capa 1"><path class="cls-1" d="M99.44,27.6a6.35,6.35,0,0,0-.89,1.12l-11.38-6.9a6.52,6.52,0,0,0,0-4.86L98.55,10.1A6.59,6.59,0,1,0,98,8.93l-11.4,6.86a6.58,6.58,0,1,0,0,7.2L98,29.9a6.66,6.66,0,0,0-.43,2.35,6.58,6.58,0,1,0,1.92-4.65ZM104.1,1.32a5.27,5.27,0,1,1-5.27,5.26,5.27,5.27,0,0,1,5.27-5.26Zm-23,23.33a5.27,5.27,0,1,1,5.27-5.26,5.27,5.27,0,0,1-5.27,5.26ZM107.82,36a5.27,5.27,0,0,1-9-3.73,5.27,5.27,0,1,1,9,3.73Z"/><text class="cls-2" transform="translate(0 26.85)">sha<tspan class="cls-3" x="39.31" y="0">r</tspan><tspan class="cls-4" x="48.76" y="0">e</tspan></text></g></g></svg>